<svg xmlns="http://www.w3.org/2000/svg" xmlns:xlink="http://www.w3.org/1999/xlink" width="253" height="257" viewBox="0 0 253 257">
  <defs>
    <clipPath id="clip-path">
      <rect width="253" height="257" fill="none"/>
    </clipPath>
  </defs>
  <g id="Repeat_Grid_82" data-name="Repeat Grid 82" opacity="0.415" clip-path="url(#clip-path)">
    <g transform="translate(-612 -204)">
      <circle id="Ellipse_218" data-name="Ellipse 218" cx="4" cy="4" r="4" transform="translate(613 205)" fill="#7cabfa"/>
    </g>
    <g transform="translate(-594 -204)">
      <circle id="Ellipse_218-2" data-name="Ellipse 218" cx="4" cy="4" r="4" transform="translate(613 205)" fill="#7cabfa"/>
    </g>
    <g transform="translate(-576 -204)">
      <circle id="Ellipse_218-3" data-name="Ellipse 218" cx="4" cy="4" r="4" transform="translate(613 205)" fill="#7cabfa"/>
    </g>
    <g transform="translate(-558 -204)">
      <circle id="Ellipse_218-4" data-name="Ellipse 218" cx="4" cy="4" r="4" transform="translate(613 205)" fill="#7cabfa"/>
    </g>
    <g transform="translate(-540 -204)">
      <circle id="Ellipse_218-5" data-name="Ellipse 218" cx="4" cy="4" r="4" transform="translate(613 205)" fill="#7cabfa"/>
    </g>
    <g transform="translate(-522 -204)">
      <circle id="Ellipse_218-6" data-name="Ellipse 218" cx="4" cy="4" r="4" transform="translate(613 205)" fill="#7cabfa"/>
    </g>
    <g transform="translate(-504 -204)">
      <circle id="Ellipse_218-7" data-name="Ellipse 218" cx="4" cy="4" r="4" transform="translate(613 205)" fill="#7cabfa"/>
    </g>
    <g transform="translate(-486 -204)">
      <circle id="Ellipse_218-8" data-name="Ellipse 218" cx="4" cy="4" r="4" transform="translate(613 205)" fill="#7cabfa"/>
    </g>
    <g transform="translate(-468 -204)">
      <circle id="Ellipse_218-9" data-name="Ellipse 218" cx="4" cy="4" r="4" transform="translate(613 205)" fill="#7cabfa"/>
    </g>
    <g transform="translate(-450 -204)">
      <circle id="Ellipse_218-10" data-name="Ellipse 218" cx="4" cy="4" r="4" transform="translate(613 205)" fill="#7cabfa"/>
    </g>
    <g transform="translate(-432 -204)">
      <circle id="Ellipse_218-11" data-name="Ellipse 218" cx="4" cy="4" r="4" transform="translate(613 205)" fill="#7cabfa"/>
    </g>
    <g transform="translate(-414 -204)">
      <circle id="Ellipse_218-12" data-name="Ellipse 218" cx="4" cy="4" r="4" transform="translate(613 205)" fill="#7cabfa"/>
    </g>
    <g transform="translate(-396 -204)">
      <circle id="Ellipse_218-13" data-name="Ellipse 218" cx="4" cy="4" r="4" transform="translate(613 205)" fill="#7cabfa"/>
    </g>
    <g transform="translate(-378 -204)">
      <circle id="Ellipse_218-14" data-name="Ellipse 218" cx="4" cy="4" r="4" transform="translate(613 205)" fill="#7cabfa"/>
    </g>
    <g transform="translate(-360 -204)">
      <circle id="Ellipse_218-15" data-name="Ellipse 218" cx="4" cy="4" r="4" transform="translate(613 205)" fill="#7cabfa"/>
    </g>
    <g transform="translate(-612 -188)">
      <circle id="Ellipse_218-16" data-name="Ellipse 218" cx="4" cy="4" r="4" transform="translate(613 205)" fill="#7cabfa"/>
    </g>
    <g transform="translate(-594 -188)">
      <circle id="Ellipse_218-17" data-name="Ellipse 218" cx="4" cy="4" r="4" transform="translate(613 205)" fill="#7cabfa"/>
    </g>
    <g transform="translate(-576 -188)">
      <circle id="Ellipse_218-18" data-name="Ellipse 218" cx="4" cy="4" r="4" transform="translate(613 205)" fill="#7cabfa"/>
    </g>
    <g transform="translate(-558 -188)">
      <circle id="Ellipse_218-19" data-name="Ellipse 218" cx="4" cy="4" r="4" transform="translate(613 205)" fill="#7cabfa"/>
    </g>
    <g transform="translate(-540 -188)">
      <circle id="Ellipse_218-20" data-name="Ellipse 218" cx="4" cy="4" r="4" transform="translate(613 205)" fill="#7cabfa"/>
    </g>
    <g transform="translate(-522 -188)">
      <circle id="Ellipse_218-21" data-name="Ellipse 218" cx="4" cy="4" r="4" transform="translate(613 205)" fill="#7cabfa"/>
    </g>
    <g transform="translate(-504 -188)">
      <circle id="Ellipse_218-22" data-name="Ellipse 218" cx="4" cy="4" r="4" transform="translate(613 205)" fill="#7cabfa"/>
    </g>
    <g transform="translate(-486 -188)">
      <circle id="Ellipse_218-23" data-name="Ellipse 218" cx="4" cy="4" r="4" transform="translate(613 205)" fill="#7cabfa"/>
    </g>
    <g transform="translate(-468 -188)">
      <circle id="Ellipse_218-24" data-name="Ellipse 218" cx="4" cy="4" r="4" transform="translate(613 205)" fill="#7cabfa"/>
    </g>
    <g transform="translate(-450 -188)">
      <circle id="Ellipse_218-25" data-name="Ellipse 218" cx="4" cy="4" r="4" transform="translate(613 205)" fill="#7cabfa"/>
    </g>
    <g transform="translate(-432 -188)">
      <circle id="Ellipse_218-26" data-name="Ellipse 218" cx="4" cy="4" r="4" transform="translate(613 205)" fill="#7cabfa"/>
    </g>
    <g transform="translate(-414 -188)">
      <circle id="Ellipse_218-27" data-name="Ellipse 218" cx="4" cy="4" r="4" transform="translate(613 205)" fill="#7cabfa"/>
    </g>
    <g transform="translate(-396 -188)">
      <circle id="Ellipse_218-28" data-name="Ellipse 218" cx="4" cy="4" r="4" transform="translate(613 205)" fill="#7cabfa"/>
    </g>
    <g transform="translate(-378 -188)">
      <circle id="Ellipse_218-29" data-name="Ellipse 218" cx="4" cy="4" r="4" transform="translate(613 205)" fill="#7cabfa"/>
    </g>
    <g transform="translate(-360 -188)">
      <circle id="Ellipse_218-30" data-name="Ellipse 218" cx="4" cy="4" r="4" transform="translate(613 205)" fill="#7cabfa"/>
    </g>
    <g transform="translate(-612 -172)">
      <circle id="Ellipse_218-31" data-name="Ellipse 218" cx="4" cy="4" r="4" transform="translate(613 205)" fill="#7cabfa"/>
    </g>
    <g transform="translate(-594 -172)">
      <circle id="Ellipse_218-32" data-name="Ellipse 218" cx="4" cy="4" r="4" transform="translate(613 205)" fill="#7cabfa"/>
    </g>
    <g transform="translate(-576 -172)">
      <circle id="Ellipse_218-33" data-name="Ellipse 218" cx="4" cy="4" r="4" transform="translate(613 205)" fill="#7cabfa"/>
    </g>
    <g transform="translate(-558 -172)">
      <circle id="Ellipse_218-34" data-name="Ellipse 218" cx="4" cy="4" r="4" transform="translate(613 205)" fill="#7cabfa"/>
    </g>
    <g transform="translate(-540 -172)">
      <circle id="Ellipse_218-35" data-name="Ellipse 218" cx="4" cy="4" r="4" transform="translate(613 205)" fill="#7cabfa"/>
    </g>
    <g transform="translate(-522 -172)">
      <circle id="Ellipse_218-36" data-name="Ellipse 218" cx="4" cy="4" r="4" transform="translate(613 205)" fill="#7cabfa"/>
    </g>
    <g transform="translate(-504 -172)">
      <circle id="Ellipse_218-37" data-name="Ellipse 218" cx="4" cy="4" r="4" transform="translate(613 205)" fill="#7cabfa"/>
    </g>
    <g transform="translate(-486 -172)">
      <circle id="Ellipse_218-38" data-name="Ellipse 218" cx="4" cy="4" r="4" transform="translate(613 205)" fill="#7cabfa"/>
    </g>
    <g transform="translate(-468 -172)">
      <circle id="Ellipse_218-39" data-name="Ellipse 218" cx="4" cy="4" r="4" transform="translate(613 205)" fill="#7cabfa"/>
    </g>
    <g transform="translate(-450 -172)">
      <circle id="Ellipse_218-40" data-name="Ellipse 218" cx="4" cy="4" r="4" transform="translate(613 205)" fill="#7cabfa"/>
    </g>
    <g transform="translate(-432 -172)">
      <circle id="Ellipse_218-41" data-name="Ellipse 218" cx="4" cy="4" r="4" transform="translate(613 205)" fill="#7cabfa"/>
    </g>
    <g transform="translate(-414 -172)">
      <circle id="Ellipse_218-42" data-name="Ellipse 218" cx="4" cy="4" r="4" transform="translate(613 205)" fill="#7cabfa"/>
    </g>
    <g transform="translate(-396 -172)">
      <circle id="Ellipse_218-43" data-name="Ellipse 218" cx="4" cy="4" r="4" transform="translate(613 205)" fill="#7cabfa"/>
    </g>
    <g transform="translate(-378 -172)">
      <circle id="Ellipse_218-44" data-name="Ellipse 218" cx="4" cy="4" r="4" transform="translate(613 205)" fill="#7cabfa"/>
    </g>
    <g transform="translate(-360 -172)">
      <circle id="Ellipse_218-45" data-name="Ellipse 218" cx="4" cy="4" r="4" transform="translate(613 205)" fill="#7cabfa"/>
    </g>
    <g transform="translate(-612 -156)">
      <circle id="Ellipse_218-46" data-name="Ellipse 218" cx="4" cy="4" r="4" transform="translate(613 205)" fill="#7cabfa"/>
    </g>
    <g transform="translate(-594 -156)">
      <circle id="Ellipse_218-47" data-name="Ellipse 218" cx="4" cy="4" r="4" transform="translate(613 205)" fill="#7cabfa"/>
    </g>
    <g transform="translate(-576 -156)">
      <circle id="Ellipse_218-48" data-name="Ellipse 218" cx="4" cy="4" r="4" transform="translate(613 205)" fill="#7cabfa"/>
    </g>
    <g transform="translate(-558 -156)">
      <circle id="Ellipse_218-49" data-name="Ellipse 218" cx="4" cy="4" r="4" transform="translate(613 205)" fill="#7cabfa"/>
    </g>
    <g transform="translate(-540 -156)">
      <circle id="Ellipse_218-50" data-name="Ellipse 218" cx="4" cy="4" r="4" transform="translate(613 205)" fill="#7cabfa"/>
    </g>
    <g transform="translate(-522 -156)">
      <circle id="Ellipse_218-51" data-name="Ellipse 218" cx="4" cy="4" r="4" transform="translate(613 205)" fill="#7cabfa"/>
    </g>
    <g transform="translate(-504 -156)">
      <circle id="Ellipse_218-52" data-name="Ellipse 218" cx="4" cy="4" r="4" transform="translate(613 205)" fill="#7cabfa"/>
    </g>
    <g transform="translate(-486 -156)">
      <circle id="Ellipse_218-53" data-name="Ellipse 218" cx="4" cy="4" r="4" transform="translate(613 205)" fill="#7cabfa"/>
    </g>
    <g transform="translate(-468 -156)">
      <circle id="Ellipse_218-54" data-name="Ellipse 218" cx="4" cy="4" r="4" transform="translate(613 205)" fill="#7cabfa"/>
    </g>
    <g transform="translate(-450 -156)">
      <circle id="Ellipse_218-55" data-name="Ellipse 218" cx="4" cy="4" r="4" transform="translate(613 205)" fill="#7cabfa"/>
    </g>
    <g transform="translate(-432 -156)">
      <circle id="Ellipse_218-56" data-name="Ellipse 218" cx="4" cy="4" r="4" transform="translate(613 205)" fill="#7cabfa"/>
    </g>
    <g transform="translate(-414 -156)">
      <circle id="Ellipse_218-57" data-name="Ellipse 218" cx="4" cy="4" r="4" transform="translate(613 205)" fill="#7cabfa"/>
    </g>
    <g transform="translate(-396 -156)">
      <circle id="Ellipse_218-58" data-name="Ellipse 218" cx="4" cy="4" r="4" transform="translate(613 205)" fill="#7cabfa"/>
    </g>
    <g transform="translate(-378 -156)">
      <circle id="Ellipse_218-59" data-name="Ellipse 218" cx="4" cy="4" r="4" transform="translate(613 205)" fill="#7cabfa"/>
    </g>
    <g transform="translate(-360 -156)">
      <circle id="Ellipse_218-60" data-name="Ellipse 218" cx="4" cy="4" r="4" transform="translate(613 205)" fill="#7cabfa"/>
    </g>
    <g transform="translate(-612 -140)">
      <circle id="Ellipse_218-61" data-name="Ellipse 218" cx="4" cy="4" r="4" transform="translate(613 205)" fill="#7cabfa"/>
    </g>
    <g transform="translate(-594 -140)">
      <circle id="Ellipse_218-62" data-name="Ellipse 218" cx="4" cy="4" r="4" transform="translate(613 205)" fill="#7cabfa"/>
    </g>
    <g transform="translate(-576 -140)">
      <circle id="Ellipse_218-63" data-name="Ellipse 218" cx="4" cy="4" r="4" transform="translate(613 205)" fill="#7cabfa"/>
    </g>
    <g transform="translate(-558 -140)">
      <circle id="Ellipse_218-64" data-name="Ellipse 218" cx="4" cy="4" r="4" transform="translate(613 205)" fill="#7cabfa"/>
    </g>
    <g transform="translate(-540 -140)">
      <circle id="Ellipse_218-65" data-name="Ellipse 218" cx="4" cy="4" r="4" transform="translate(613 205)" fill="#7cabfa"/>
    </g>
    <g transform="translate(-522 -140)">
      <circle id="Ellipse_218-66" data-name="Ellipse 218" cx="4" cy="4" r="4" transform="translate(613 205)" fill="#7cabfa"/>
    </g>
    <g transform="translate(-504 -140)">
      <circle id="Ellipse_218-67" data-name="Ellipse 218" cx="4" cy="4" r="4" transform="translate(613 205)" fill="#7cabfa"/>
    </g>
    <g transform="translate(-486 -140)">
      <circle id="Ellipse_218-68" data-name="Ellipse 218" cx="4" cy="4" r="4" transform="translate(613 205)" fill="#7cabfa"/>
    </g>
    <g transform="translate(-468 -140)">
      <circle id="Ellipse_218-69" data-name="Ellipse 218" cx="4" cy="4" r="4" transform="translate(613 205)" fill="#7cabfa"/>
    </g>
    <g transform="translate(-450 -140)">
      <circle id="Ellipse_218-70" data-name="Ellipse 218" cx="4" cy="4" r="4" transform="translate(613 205)" fill="#7cabfa"/>
    </g>
    <g transform="translate(-432 -140)">
      <circle id="Ellipse_218-71" data-name="Ellipse 218" cx="4" cy="4" r="4" transform="translate(613 205)" fill="#7cabfa"/>
    </g>
    <g transform="translate(-414 -140)">
      <circle id="Ellipse_218-72" data-name="Ellipse 218" cx="4" cy="4" r="4" transform="translate(613 205)" fill="#7cabfa"/>
    </g>
    <g transform="translate(-396 -140)">
      <circle id="Ellipse_218-73" data-name="Ellipse 218" cx="4" cy="4" r="4" transform="translate(613 205)" fill="#7cabfa"/>
    </g>
    <g transform="translate(-378 -140)">
      <circle id="Ellipse_218-74" data-name="Ellipse 218" cx="4" cy="4" r="4" transform="translate(613 205)" fill="#7cabfa"/>
    </g>
    <g transform="translate(-360 -140)">
      <circle id="Ellipse_218-75" data-name="Ellipse 218" cx="4" cy="4" r="4" transform="translate(613 205)" fill="#7cabfa"/>
    </g>
    <g transform="translate(-612 -124)">
      <circle id="Ellipse_218-76" data-name="Ellipse 218" cx="4" cy="4" r="4" transform="translate(613 205)" fill="#7cabfa"/>
    </g>
    <g transform="translate(-594 -124)">
      <circle id="Ellipse_218-77" data-name="Ellipse 218" cx="4" cy="4" r="4" transform="translate(613 205)" fill="#7cabfa"/>
    </g>
    <g transform="translate(-576 -124)">
      <circle id="Ellipse_218-78" data-name="Ellipse 218" cx="4" cy="4" r="4" transform="translate(613 205)" fill="#7cabfa"/>
    </g>
    <g transform="translate(-558 -124)">
      <circle id="Ellipse_218-79" data-name="Ellipse 218" cx="4" cy="4" r="4" transform="translate(613 205)" fill="#7cabfa"/>
    </g>
    <g transform="translate(-540 -124)">
      <circle id="Ellipse_218-80" data-name="Ellipse 218" cx="4" cy="4" r="4" transform="translate(613 205)" fill="#7cabfa"/>
    </g>
    <g transform="translate(-522 -124)">
      <circle id="Ellipse_218-81" data-name="Ellipse 218" cx="4" cy="4" r="4" transform="translate(613 205)" fill="#7cabfa"/>
    </g>
    <g transform="translate(-504 -124)">
      <circle id="Ellipse_218-82" data-name="Ellipse 218" cx="4" cy="4" r="4" transform="translate(613 205)" fill="#7cabfa"/>
    </g>
    <g transform="translate(-486 -124)">
      <circle id="Ellipse_218-83" data-name="Ellipse 218" cx="4" cy="4" r="4" transform="translate(613 205)" fill="#7cabfa"/>
    </g>
    <g transform="translate(-468 -124)">
      <circle id="Ellipse_218-84" data-name="Ellipse 218" cx="4" cy="4" r="4" transform="translate(613 205)" fill="#7cabfa"/>
    </g>
    <g transform="translate(-450 -124)">
      <circle id="Ellipse_218-85" data-name="Ellipse 218" cx="4" cy="4" r="4" transform="translate(613 205)" fill="#7cabfa"/>
    </g>
    <g transform="translate(-432 -124)">
      <circle id="Ellipse_218-86" data-name="Ellipse 218" cx="4" cy="4" r="4" transform="translate(613 205)" fill="#7cabfa"/>
    </g>
    <g transform="translate(-414 -124)">
      <circle id="Ellipse_218-87" data-name="Ellipse 218" cx="4" cy="4" r="4" transform="translate(613 205)" fill="#7cabfa"/>
    </g>
    <g transform="translate(-396 -124)">
      <circle id="Ellipse_218-88" data-name="Ellipse 218" cx="4" cy="4" r="4" transform="translate(613 205)" fill="#7cabfa"/>
    </g>
    <g transform="translate(-378 -124)">
      <circle id="Ellipse_218-89" data-name="Ellipse 218" cx="4" cy="4" r="4" transform="translate(613 205)" fill="#7cabfa"/>
    </g>
    <g transform="translate(-360 -124)">
      <circle id="Ellipse_218-90" data-name="Ellipse 218" cx="4" cy="4" r="4" transform="translate(613 205)" fill="#7cabfa"/>
    </g>
    <g transform="translate(-612 -108)">
      <circle id="Ellipse_218-91" data-name="Ellipse 218" cx="4" cy="4" r="4" transform="translate(613 205)" fill="#7cabfa"/>
    </g>
    <g transform="translate(-594 -108)">
      <circle id="Ellipse_218-92" data-name="Ellipse 218" cx="4" cy="4" r="4" transform="translate(613 205)" fill="#7cabfa"/>
    </g>
    <g transform="translate(-576 -108)">
      <circle id="Ellipse_218-93" data-name="Ellipse 218" cx="4" cy="4" r="4" transform="translate(613 205)" fill="#7cabfa"/>
    </g>
    <g transform="translate(-558 -108)">
      <circle id="Ellipse_218-94" data-name="Ellipse 218" cx="4" cy="4" r="4" transform="translate(613 205)" fill="#7cabfa"/>
    </g>
    <g transform="translate(-540 -108)">
      <circle id="Ellipse_218-95" data-name="Ellipse 218" cx="4" cy="4" r="4" transform="translate(613 205)" fill="#7cabfa"/>
    </g>
    <g transform="translate(-522 -108)">
      <circle id="Ellipse_218-96" data-name="Ellipse 218" cx="4" cy="4" r="4" transform="translate(613 205)" fill="#7cabfa"/>
    </g>
    <g transform="translate(-504 -108)">
      <circle id="Ellipse_218-97" data-name="Ellipse 218" cx="4" cy="4" r="4" transform="translate(613 205)" fill="#7cabfa"/>
    </g>
    <g transform="translate(-486 -108)">
      <circle id="Ellipse_218-98" data-name="Ellipse 218" cx="4" cy="4" r="4" transform="translate(613 205)" fill="#7cabfa"/>
    </g>
    <g transform="translate(-468 -108)">
      <circle id="Ellipse_218-99" data-name="Ellipse 218" cx="4" cy="4" r="4" transform="translate(613 205)" fill="#7cabfa"/>
    </g>
    <g transform="translate(-450 -108)">
      <circle id="Ellipse_218-100" data-name="Ellipse 218" cx="4" cy="4" r="4" transform="translate(613 205)" fill="#7cabfa"/>
    </g>
    <g transform="translate(-432 -108)">
      <circle id="Ellipse_218-101" data-name="Ellipse 218" cx="4" cy="4" r="4" transform="translate(613 205)" fill="#7cabfa"/>
    </g>
    <g transform="translate(-414 -108)">
      <circle id="Ellipse_218-102" data-name="Ellipse 218" cx="4" cy="4" r="4" transform="translate(613 205)" fill="#7cabfa"/>
    </g>
    <g transform="translate(-396 -108)">
      <circle id="Ellipse_218-103" data-name="Ellipse 218" cx="4" cy="4" r="4" transform="translate(613 205)" fill="#7cabfa"/>
    </g>
    <g transform="translate(-378 -108)">
      <circle id="Ellipse_218-104" data-name="Ellipse 218" cx="4" cy="4" r="4" transform="translate(613 205)" fill="#7cabfa"/>
    </g>
    <g transform="translate(-360 -108)">
      <circle id="Ellipse_218-105" data-name="Ellipse 218" cx="4" cy="4" r="4" transform="translate(613 205)" fill="#7cabfa"/>
    </g>
    <g transform="translate(-612 -92)">
      <circle id="Ellipse_218-106" data-name="Ellipse 218" cx="4" cy="4" r="4" transform="translate(613 205)" fill="#7cabfa"/>
    </g>
    <g transform="translate(-594 -92)">
      <circle id="Ellipse_218-107" data-name="Ellipse 218" cx="4" cy="4" r="4" transform="translate(613 205)" fill="#7cabfa"/>
    </g>
    <g transform="translate(-576 -92)">
      <circle id="Ellipse_218-108" data-name="Ellipse 218" cx="4" cy="4" r="4" transform="translate(613 205)" fill="#7cabfa"/>
    </g>
    <g transform="translate(-558 -92)">
      <circle id="Ellipse_218-109" data-name="Ellipse 218" cx="4" cy="4" r="4" transform="translate(613 205)" fill="#7cabfa"/>
    </g>
    <g transform="translate(-540 -92)">
      <circle id="Ellipse_218-110" data-name="Ellipse 218" cx="4" cy="4" r="4" transform="translate(613 205)" fill="#7cabfa"/>
    </g>
    <g transform="translate(-522 -92)">
      <circle id="Ellipse_218-111" data-name="Ellipse 218" cx="4" cy="4" r="4" transform="translate(613 205)" fill="#7cabfa"/>
    </g>
    <g transform="translate(-504 -92)">
      <circle id="Ellipse_218-112" data-name="Ellipse 218" cx="4" cy="4" r="4" transform="translate(613 205)" fill="#7cabfa"/>
    </g>
    <g transform="translate(-486 -92)">
      <circle id="Ellipse_218-113" data-name="Ellipse 218" cx="4" cy="4" r="4" transform="translate(613 205)" fill="#7cabfa"/>
    </g>
    <g transform="translate(-468 -92)">
      <circle id="Ellipse_218-114" data-name="Ellipse 218" cx="4" cy="4" r="4" transform="translate(613 205)" fill="#7cabfa"/>
    </g>
    <g transform="translate(-450 -92)">
      <circle id="Ellipse_218-115" data-name="Ellipse 218" cx="4" cy="4" r="4" transform="translate(613 205)" fill="#7cabfa"/>
    </g>
    <g transform="translate(-432 -92)">
      <circle id="Ellipse_218-116" data-name="Ellipse 218" cx="4" cy="4" r="4" transform="translate(613 205)" fill="#7cabfa"/>
    </g>
    <g transform="translate(-414 -92)">
      <circle id="Ellipse_218-117" data-name="Ellipse 218" cx="4" cy="4" r="4" transform="translate(613 205)" fill="#7cabfa"/>
    </g>
    <g transform="translate(-396 -92)">
      <circle id="Ellipse_218-118" data-name="Ellipse 218" cx="4" cy="4" r="4" transform="translate(613 205)" fill="#7cabfa"/>
    </g>
    <g transform="translate(-378 -92)">
      <circle id="Ellipse_218-119" data-name="Ellipse 218" cx="4" cy="4" r="4" transform="translate(613 205)" fill="#7cabfa"/>
    </g>
    <g transform="translate(-360 -92)">
      <circle id="Ellipse_218-120" data-name="Ellipse 218" cx="4" cy="4" r="4" transform="translate(613 205)" fill="#7cabfa"/>
    </g>
    <g transform="translate(-612 -76)">
      <circle id="Ellipse_218-121" data-name="Ellipse 218" cx="4" cy="4" r="4" transform="translate(613 205)" fill="#7cabfa"/>
    </g>
    <g transform="translate(-594 -76)">
      <circle id="Ellipse_218-122" data-name="Ellipse 218" cx="4" cy="4" r="4" transform="translate(613 205)" fill="#7cabfa"/>
    </g>
    <g transform="translate(-576 -76)">
      <circle id="Ellipse_218-123" data-name="Ellipse 218" cx="4" cy="4" r="4" transform="translate(613 205)" fill="#7cabfa"/>
    </g>
    <g transform="translate(-558 -76)">
      <circle id="Ellipse_218-124" data-name="Ellipse 218" cx="4" cy="4" r="4" transform="translate(613 205)" fill="#7cabfa"/>
    </g>
    <g transform="translate(-540 -76)">
      <circle id="Ellipse_218-125" data-name="Ellipse 218" cx="4" cy="4" r="4" transform="translate(613 205)" fill="#7cabfa"/>
    </g>
    <g transform="translate(-522 -76)">
      <circle id="Ellipse_218-126" data-name="Ellipse 218" cx="4" cy="4" r="4" transform="translate(613 205)" fill="#7cabfa"/>
    </g>
    <g transform="translate(-504 -76)">
      <circle id="Ellipse_218-127" data-name="Ellipse 218" cx="4" cy="4" r="4" transform="translate(613 205)" fill="#7cabfa"/>
    </g>
    <g transform="translate(-486 -76)">
      <circle id="Ellipse_218-128" data-name="Ellipse 218" cx="4" cy="4" r="4" transform="translate(613 205)" fill="#7cabfa"/>
    </g>
    <g transform="translate(-468 -76)">
      <circle id="Ellipse_218-129" data-name="Ellipse 218" cx="4" cy="4" r="4" transform="translate(613 205)" fill="#7cabfa"/>
    </g>
    <g transform="translate(-450 -76)">
      <circle id="Ellipse_218-130" data-name="Ellipse 218" cx="4" cy="4" r="4" transform="translate(613 205)" fill="#7cabfa"/>
    </g>
    <g transform="translate(-432 -76)">
      <circle id="Ellipse_218-131" data-name="Ellipse 218" cx="4" cy="4" r="4" transform="translate(613 205)" fill="#7cabfa"/>
    </g>
    <g transform="translate(-414 -76)">
      <circle id="Ellipse_218-132" data-name="Ellipse 218" cx="4" cy="4" r="4" transform="translate(613 205)" fill="#7cabfa"/>
    </g>
    <g transform="translate(-396 -76)">
      <circle id="Ellipse_218-133" data-name="Ellipse 218" cx="4" cy="4" r="4" transform="translate(613 205)" fill="#7cabfa"/>
    </g>
    <g transform="translate(-378 -76)">
      <circle id="Ellipse_218-134" data-name="Ellipse 218" cx="4" cy="4" r="4" transform="translate(613 205)" fill="#7cabfa"/>
    </g>
    <g transform="translate(-360 -76)">
      <circle id="Ellipse_218-135" data-name="Ellipse 218" cx="4" cy="4" r="4" transform="translate(613 205)" fill="#7cabfa"/>
    </g>
    <g transform="translate(-612 -60)">
      <circle id="Ellipse_218-136" data-name="Ellipse 218" cx="4" cy="4" r="4" transform="translate(613 205)" fill="#7cabfa"/>
    </g>
    <g transform="translate(-594 -60)">
      <circle id="Ellipse_218-137" data-name="Ellipse 218" cx="4" cy="4" r="4" transform="translate(613 205)" fill="#7cabfa"/>
    </g>
    <g transform="translate(-576 -60)">
      <circle id="Ellipse_218-138" data-name="Ellipse 218" cx="4" cy="4" r="4" transform="translate(613 205)" fill="#7cabfa"/>
    </g>
    <g transform="translate(-558 -60)">
      <circle id="Ellipse_218-139" data-name="Ellipse 218" cx="4" cy="4" r="4" transform="translate(613 205)" fill="#7cabfa"/>
    </g>
    <g transform="translate(-540 -60)">
      <circle id="Ellipse_218-140" data-name="Ellipse 218" cx="4" cy="4" r="4" transform="translate(613 205)" fill="#7cabfa"/>
    </g>
    <g transform="translate(-522 -60)">
      <circle id="Ellipse_218-141" data-name="Ellipse 218" cx="4" cy="4" r="4" transform="translate(613 205)" fill="#7cabfa"/>
    </g>
    <g transform="translate(-504 -60)">
      <circle id="Ellipse_218-142" data-name="Ellipse 218" cx="4" cy="4" r="4" transform="translate(613 205)" fill="#7cabfa"/>
    </g>
    <g transform="translate(-486 -60)">
      <circle id="Ellipse_218-143" data-name="Ellipse 218" cx="4" cy="4" r="4" transform="translate(613 205)" fill="#7cabfa"/>
    </g>
    <g transform="translate(-468 -60)">
      <circle id="Ellipse_218-144" data-name="Ellipse 218" cx="4" cy="4" r="4" transform="translate(613 205)" fill="#7cabfa"/>
    </g>
    <g transform="translate(-450 -60)">
      <circle id="Ellipse_218-145" data-name="Ellipse 218" cx="4" cy="4" r="4" transform="translate(613 205)" fill="#7cabfa"/>
    </g>
    <g transform="translate(-432 -60)">
      <circle id="Ellipse_218-146" data-name="Ellipse 218" cx="4" cy="4" r="4" transform="translate(613 205)" fill="#7cabfa"/>
    </g>
    <g transform="translate(-414 -60)">
      <circle id="Ellipse_218-147" data-name="Ellipse 218" cx="4" cy="4" r="4" transform="translate(613 205)" fill="#7cabfa"/>
    </g>
    <g transform="translate(-396 -60)">
      <circle id="Ellipse_218-148" data-name="Ellipse 218" cx="4" cy="4" r="4" transform="translate(613 205)" fill="#7cabfa"/>
    </g>
    <g transform="translate(-378 -60)">
      <circle id="Ellipse_218-149" data-name="Ellipse 218" cx="4" cy="4" r="4" transform="translate(613 205)" fill="#7cabfa"/>
    </g>
    <g transform="translate(-360 -60)">
      <circle id="Ellipse_218-150" data-name="Ellipse 218" cx="4" cy="4" r="4" transform="translate(613 205)" fill="#7cabfa"/>
    </g>
    <g transform="translate(-612 -44)">
      <circle id="Ellipse_218-151" data-name="Ellipse 218" cx="4" cy="4" r="4" transform="translate(613 205)" fill="#7cabfa"/>
    </g>
    <g transform="translate(-594 -44)">
      <circle id="Ellipse_218-152" data-name="Ellipse 218" cx="4" cy="4" r="4" transform="translate(613 205)" fill="#7cabfa"/>
    </g>
    <g transform="translate(-576 -44)">
      <circle id="Ellipse_218-153" data-name="Ellipse 218" cx="4" cy="4" r="4" transform="translate(613 205)" fill="#7cabfa"/>
    </g>
    <g transform="translate(-558 -44)">
      <circle id="Ellipse_218-154" data-name="Ellipse 218" cx="4" cy="4" r="4" transform="translate(613 205)" fill="#7cabfa"/>
    </g>
    <g transform="translate(-540 -44)">
      <circle id="Ellipse_218-155" data-name="Ellipse 218" cx="4" cy="4" r="4" transform="translate(613 205)" fill="#7cabfa"/>
    </g>
    <g transform="translate(-522 -44)">
      <circle id="Ellipse_218-156" data-name="Ellipse 218" cx="4" cy="4" r="4" transform="translate(613 205)" fill="#7cabfa"/>
    </g>
    <g transform="translate(-504 -44)">
      <circle id="Ellipse_218-157" data-name="Ellipse 218" cx="4" cy="4" r="4" transform="translate(613 205)" fill="#7cabfa"/>
    </g>
    <g transform="translate(-486 -44)">
      <circle id="Ellipse_218-158" data-name="Ellipse 218" cx="4" cy="4" r="4" transform="translate(613 205)" fill="#7cabfa"/>
    </g>
    <g transform="translate(-468 -44)">
      <circle id="Ellipse_218-159" data-name="Ellipse 218" cx="4" cy="4" r="4" transform="translate(613 205)" fill="#7cabfa"/>
    </g>
    <g transform="translate(-450 -44)">
      <circle id="Ellipse_218-160" data-name="Ellipse 218" cx="4" cy="4" r="4" transform="translate(613 205)" fill="#7cabfa"/>
    </g>
    <g transform="translate(-432 -44)">
      <circle id="Ellipse_218-161" data-name="Ellipse 218" cx="4" cy="4" r="4" transform="translate(613 205)" fill="#7cabfa"/>
    </g>
    <g transform="translate(-414 -44)">
      <circle id="Ellipse_218-162" data-name="Ellipse 218" cx="4" cy="4" r="4" transform="translate(613 205)" fill="#7cabfa"/>
    </g>
    <g transform="translate(-396 -44)">
      <circle id="Ellipse_218-163" data-name="Ellipse 218" cx="4" cy="4" r="4" transform="translate(613 205)" fill="#7cabfa"/>
    </g>
    <g transform="translate(-378 -44)">
      <circle id="Ellipse_218-164" data-name="Ellipse 218" cx="4" cy="4" r="4" transform="translate(613 205)" fill="#7cabfa"/>
    </g>
    <g transform="translate(-360 -44)">
      <circle id="Ellipse_218-165" data-name="Ellipse 218" cx="4" cy="4" r="4" transform="translate(613 205)" fill="#7cabfa"/>
    </g>
    <g transform="translate(-612 -28)">
      <circle id="Ellipse_218-166" data-name="Ellipse 218" cx="4" cy="4" r="4" transform="translate(613 205)" fill="#7cabfa"/>
    </g>
    <g transform="translate(-594 -28)">
      <circle id="Ellipse_218-167" data-name="Ellipse 218" cx="4" cy="4" r="4" transform="translate(613 205)" fill="#7cabfa"/>
    </g>
    <g transform="translate(-576 -28)">
      <circle id="Ellipse_218-168" data-name="Ellipse 218" cx="4" cy="4" r="4" transform="translate(613 205)" fill="#7cabfa"/>
    </g>
    <g transform="translate(-558 -28)">
      <circle id="Ellipse_218-169" data-name="Ellipse 218" cx="4" cy="4" r="4" transform="translate(613 205)" fill="#7cabfa"/>
    </g>
    <g transform="translate(-540 -28)">
      <circle id="Ellipse_218-170" data-name="Ellipse 218" cx="4" cy="4" r="4" transform="translate(613 205)" fill="#7cabfa"/>
    </g>
    <g transform="translate(-522 -28)">
      <circle id="Ellipse_218-171" data-name="Ellipse 218" cx="4" cy="4" r="4" transform="translate(613 205)" fill="#7cabfa"/>
    </g>
    <g transform="translate(-504 -28)">
      <circle id="Ellipse_218-172" data-name="Ellipse 218" cx="4" cy="4" r="4" transform="translate(613 205)" fill="#7cabfa"/>
    </g>
    <g transform="translate(-486 -28)">
      <circle id="Ellipse_218-173" data-name="Ellipse 218" cx="4" cy="4" r="4" transform="translate(613 205)" fill="#7cabfa"/>
    </g>
    <g transform="translate(-468 -28)">
      <circle id="Ellipse_218-174" data-name="Ellipse 218" cx="4" cy="4" r="4" transform="translate(613 205)" fill="#7cabfa"/>
    </g>
    <g transform="translate(-450 -28)">
      <circle id="Ellipse_218-175" data-name="Ellipse 218" cx="4" cy="4" r="4" transform="translate(613 205)" fill="#7cabfa"/>
    </g>
    <g transform="translate(-432 -28)">
      <circle id="Ellipse_218-176" data-name="Ellipse 218" cx="4" cy="4" r="4" transform="translate(613 205)" fill="#7cabfa"/>
    </g>
    <g transform="translate(-414 -28)">
      <circle id="Ellipse_218-177" data-name="Ellipse 218" cx="4" cy="4" r="4" transform="translate(613 205)" fill="#7cabfa"/>
    </g>
    <g transform="translate(-396 -28)">
      <circle id="Ellipse_218-178" data-name="Ellipse 218" cx="4" cy="4" r="4" transform="translate(613 205)" fill="#7cabfa"/>
    </g>
    <g transform="translate(-378 -28)">
      <circle id="Ellipse_218-179" data-name="Ellipse 218" cx="4" cy="4" r="4" transform="translate(613 205)" fill="#7cabfa"/>
    </g>
    <g transform="translate(-360 -28)">
      <circle id="Ellipse_218-180" data-name="Ellipse 218" cx="4" cy="4" r="4" transform="translate(613 205)" fill="#7cabfa"/>
    </g>
    <g transform="translate(-612 -12)">
      <circle id="Ellipse_218-181" data-name="Ellipse 218" cx="4" cy="4" r="4" transform="translate(613 205)" fill="#7cabfa"/>
    </g>
    <g transform="translate(-594 -12)">
      <circle id="Ellipse_218-182" data-name="Ellipse 218" cx="4" cy="4" r="4" transform="translate(613 205)" fill="#7cabfa"/>
    </g>
    <g transform="translate(-576 -12)">
      <circle id="Ellipse_218-183" data-name="Ellipse 218" cx="4" cy="4" r="4" transform="translate(613 205)" fill="#7cabfa"/>
    </g>
    <g transform="translate(-558 -12)">
      <circle id="Ellipse_218-184" data-name="Ellipse 218" cx="4" cy="4" r="4" transform="translate(613 205)" fill="#7cabfa"/>
    </g>
    <g transform="translate(-540 -12)">
      <circle id="Ellipse_218-185" data-name="Ellipse 218" cx="4" cy="4" r="4" transform="translate(613 205)" fill="#7cabfa"/>
    </g>
    <g transform="translate(-522 -12)">
      <circle id="Ellipse_218-186" data-name="Ellipse 218" cx="4" cy="4" r="4" transform="translate(613 205)" fill="#7cabfa"/>
    </g>
    <g transform="translate(-504 -12)">
      <circle id="Ellipse_218-187" data-name="Ellipse 218" cx="4" cy="4" r="4" transform="translate(613 205)" fill="#7cabfa"/>
    </g>
    <g transform="translate(-486 -12)">
      <circle id="Ellipse_218-188" data-name="Ellipse 218" cx="4" cy="4" r="4" transform="translate(613 205)" fill="#7cabfa"/>
    </g>
    <g transform="translate(-468 -12)">
      <circle id="Ellipse_218-189" data-name="Ellipse 218" cx="4" cy="4" r="4" transform="translate(613 205)" fill="#7cabfa"/>
    </g>
    <g transform="translate(-450 -12)">
      <circle id="Ellipse_218-190" data-name="Ellipse 218" cx="4" cy="4" r="4" transform="translate(613 205)" fill="#7cabfa"/>
    </g>
    <g transform="translate(-432 -12)">
      <circle id="Ellipse_218-191" data-name="Ellipse 218" cx="4" cy="4" r="4" transform="translate(613 205)" fill="#7cabfa"/>
    </g>
    <g transform="translate(-414 -12)">
      <circle id="Ellipse_218-192" data-name="Ellipse 218" cx="4" cy="4" r="4" transform="translate(613 205)" fill="#7cabfa"/>
    </g>
    <g transform="translate(-396 -12)">
      <circle id="Ellipse_218-193" data-name="Ellipse 218" cx="4" cy="4" r="4" transform="translate(613 205)" fill="#7cabfa"/>
    </g>
    <g transform="translate(-378 -12)">
      <circle id="Ellipse_218-194" data-name="Ellipse 218" cx="4" cy="4" r="4" transform="translate(613 205)" fill="#7cabfa"/>
    </g>
    <g transform="translate(-360 -12)">
      <circle id="Ellipse_218-195" data-name="Ellipse 218" cx="4" cy="4" r="4" transform="translate(613 205)" fill="#7cabfa"/>
    </g>
    <g transform="translate(-612 4)">
      <circle id="Ellipse_218-196" data-name="Ellipse 218" cx="4" cy="4" r="4" transform="translate(613 205)" fill="#7cabfa"/>
    </g>
    <g transform="translate(-594 4)">
      <circle id="Ellipse_218-197" data-name="Ellipse 218" cx="4" cy="4" r="4" transform="translate(613 205)" fill="#7cabfa"/>
    </g>
    <g transform="translate(-576 4)">
      <circle id="Ellipse_218-198" data-name="Ellipse 218" cx="4" cy="4" r="4" transform="translate(613 205)" fill="#7cabfa"/>
    </g>
    <g transform="translate(-558 4)">
      <circle id="Ellipse_218-199" data-name="Ellipse 218" cx="4" cy="4" r="4" transform="translate(613 205)" fill="#7cabfa"/>
    </g>
    <g transform="translate(-540 4)">
      <circle id="Ellipse_218-200" data-name="Ellipse 218" cx="4" cy="4" r="4" transform="translate(613 205)" fill="#7cabfa"/>
    </g>
    <g transform="translate(-522 4)">
      <circle id="Ellipse_218-201" data-name="Ellipse 218" cx="4" cy="4" r="4" transform="translate(613 205)" fill="#7cabfa"/>
    </g>
    <g transform="translate(-504 4)">
      <circle id="Ellipse_218-202" data-name="Ellipse 218" cx="4" cy="4" r="4" transform="translate(613 205)" fill="#7cabfa"/>
    </g>
    <g transform="translate(-486 4)">
      <circle id="Ellipse_218-203" data-name="Ellipse 218" cx="4" cy="4" r="4" transform="translate(613 205)" fill="#7cabfa"/>
    </g>
    <g transform="translate(-468 4)">
      <circle id="Ellipse_218-204" data-name="Ellipse 218" cx="4" cy="4" r="4" transform="translate(613 205)" fill="#7cabfa"/>
    </g>
    <g transform="translate(-450 4)">
      <circle id="Ellipse_218-205" data-name="Ellipse 218" cx="4" cy="4" r="4" transform="translate(613 205)" fill="#7cabfa"/>
    </g>
    <g transform="translate(-432 4)">
      <circle id="Ellipse_218-206" data-name="Ellipse 218" cx="4" cy="4" r="4" transform="translate(613 205)" fill="#7cabfa"/>
    </g>
    <g transform="translate(-414 4)">
      <circle id="Ellipse_218-207" data-name="Ellipse 218" cx="4" cy="4" r="4" transform="translate(613 205)" fill="#7cabfa"/>
    </g>
    <g transform="translate(-396 4)">
      <circle id="Ellipse_218-208" data-name="Ellipse 218" cx="4" cy="4" r="4" transform="translate(613 205)" fill="#7cabfa"/>
    </g>
    <g transform="translate(-378 4)">
      <circle id="Ellipse_218-209" data-name="Ellipse 218" cx="4" cy="4" r="4" transform="translate(613 205)" fill="#7cabfa"/>
    </g>
    <g transform="translate(-360 4)">
      <circle id="Ellipse_218-210" data-name="Ellipse 218" cx="4" cy="4" r="4" transform="translate(613 205)" fill="#7cabfa"/>
    </g>
    <g transform="translate(-612 20)">
      <circle id="Ellipse_218-211" data-name="Ellipse 218" cx="4" cy="4" r="4" transform="translate(613 205)" fill="#7cabfa"/>
    </g>
    <g transform="translate(-594 20)">
      <circle id="Ellipse_218-212" data-name="Ellipse 218" cx="4" cy="4" r="4" transform="translate(613 205)" fill="#7cabfa"/>
    </g>
    <g transform="translate(-576 20)">
      <circle id="Ellipse_218-213" data-name="Ellipse 218" cx="4" cy="4" r="4" transform="translate(613 205)" fill="#7cabfa"/>
    </g>
    <g transform="translate(-558 20)">
      <circle id="Ellipse_218-214" data-name="Ellipse 218" cx="4" cy="4" r="4" transform="translate(613 205)" fill="#7cabfa"/>
    </g>
    <g transform="translate(-540 20)">
      <circle id="Ellipse_218-215" data-name="Ellipse 218" cx="4" cy="4" r="4" transform="translate(613 205)" fill="#7cabfa"/>
    </g>
    <g transform="translate(-522 20)">
      <circle id="Ellipse_218-216" data-name="Ellipse 218" cx="4" cy="4" r="4" transform="translate(613 205)" fill="#7cabfa"/>
    </g>
    <g transform="translate(-504 20)">
      <circle id="Ellipse_218-217" data-name="Ellipse 218" cx="4" cy="4" r="4" transform="translate(613 205)" fill="#7cabfa"/>
    </g>
    <g transform="translate(-486 20)">
      <circle id="Ellipse_218-218" data-name="Ellipse 218" cx="4" cy="4" r="4" transform="translate(613 205)" fill="#7cabfa"/>
    </g>
    <g transform="translate(-468 20)">
      <circle id="Ellipse_218-219" data-name="Ellipse 218" cx="4" cy="4" r="4" transform="translate(613 205)" fill="#7cabfa"/>
    </g>
    <g transform="translate(-450 20)">
      <circle id="Ellipse_218-220" data-name="Ellipse 218" cx="4" cy="4" r="4" transform="translate(613 205)" fill="#7cabfa"/>
    </g>
    <g transform="translate(-432 20)">
      <circle id="Ellipse_218-221" data-name="Ellipse 218" cx="4" cy="4" r="4" transform="translate(613 205)" fill="#7cabfa"/>
    </g>
    <g transform="translate(-414 20)">
      <circle id="Ellipse_218-222" data-name="Ellipse 218" cx="4" cy="4" r="4" transform="translate(613 205)" fill="#7cabfa"/>
    </g>
    <g transform="translate(-396 20)">
      <circle id="Ellipse_218-223" data-name="Ellipse 218" cx="4" cy="4" r="4" transform="translate(613 205)" fill="#7cabfa"/>
    </g>
    <g transform="translate(-378 20)">
      <circle id="Ellipse_218-224" data-name="Ellipse 218" cx="4" cy="4" r="4" transform="translate(613 205)" fill="#7cabfa"/>
    </g>
    <g transform="translate(-360 20)">
      <circle id="Ellipse_218-225" data-name="Ellipse 218" cx="4" cy="4" r="4" transform="translate(613 205)" fill="#7cabfa"/>
    </g>
    <g transform="translate(-612 36)">
      <circle id="Ellipse_218-226" data-name="Ellipse 218" cx="4" cy="4" r="4" transform="translate(613 205)" fill="#7cabfa"/>
    </g>
    <g transform="translate(-594 36)">
      <circle id="Ellipse_218-227" data-name="Ellipse 218" cx="4" cy="4" r="4" transform="translate(613 205)" fill="#7cabfa"/>
    </g>
    <g transform="translate(-576 36)">
      <circle id="Ellipse_218-228" data-name="Ellipse 218" cx="4" cy="4" r="4" transform="translate(613 205)" fill="#7cabfa"/>
    </g>
    <g transform="translate(-558 36)">
      <circle id="Ellipse_218-229" data-name="Ellipse 218" cx="4" cy="4" r="4" transform="translate(613 205)" fill="#7cabfa"/>
    </g>
    <g transform="translate(-540 36)">
      <circle id="Ellipse_218-230" data-name="Ellipse 218" cx="4" cy="4" r="4" transform="translate(613 205)" fill="#7cabfa"/>
    </g>
    <g transform="translate(-522 36)">
      <circle id="Ellipse_218-231" data-name="Ellipse 218" cx="4" cy="4" r="4" transform="translate(613 205)" fill="#7cabfa"/>
    </g>
    <g transform="translate(-504 36)">
      <circle id="Ellipse_218-232" data-name="Ellipse 218" cx="4" cy="4" r="4" transform="translate(613 205)" fill="#7cabfa"/>
    </g>
    <g transform="translate(-486 36)">
      <circle id="Ellipse_218-233" data-name="Ellipse 218" cx="4" cy="4" r="4" transform="translate(613 205)" fill="#7cabfa"/>
    </g>
    <g transform="translate(-468 36)">
      <circle id="Ellipse_218-234" data-name="Ellipse 218" cx="4" cy="4" r="4" transform="translate(613 205)" fill="#7cabfa"/>
    </g>
    <g transform="translate(-450 36)">
      <circle id="Ellipse_218-235" data-name="Ellipse 218" cx="4" cy="4" r="4" transform="translate(613 205)" fill="#7cabfa"/>
    </g>
    <g transform="translate(-432 36)">
      <circle id="Ellipse_218-236" data-name="Ellipse 218" cx="4" cy="4" r="4" transform="translate(613 205)" fill="#7cabfa"/>
    </g>
    <g transform="translate(-414 36)">
      <circle id="Ellipse_218-237" data-name="Ellipse 218" cx="4" cy="4" r="4" transform="translate(613 205)" fill="#7cabfa"/>
    </g>
    <g transform="translate(-396 36)">
      <circle id="Ellipse_218-238" data-name="Ellipse 218" cx="4" cy="4" r="4" transform="translate(613 205)" fill="#7cabfa"/>
    </g>
    <g transform="translate(-378 36)">
      <circle id="Ellipse_218-239" data-name="Ellipse 218" cx="4" cy="4" r="4" transform="translate(613 205)" fill="#7cabfa"/>
    </g>
    <g transform="translate(-360 36)">
      <circle id="Ellipse_218-240" data-name="Ellipse 218" cx="4" cy="4" r="4" transform="translate(613 205)" fill="#7cabfa"/>
    </g>
    <g transform="translate(-612 52)">
      <circle id="Ellipse_218-241" data-name="Ellipse 218" cx="4" cy="4" r="4" transform="translate(613 205)" fill="#7cabfa"/>
    </g>
    <g transform="translate(-594 52)">
      <circle id="Ellipse_218-242" data-name="Ellipse 218" cx="4" cy="4" r="4" transform="translate(613 205)" fill="#7cabfa"/>
    </g>
    <g transform="translate(-576 52)">
      <circle id="Ellipse_218-243" data-name="Ellipse 218" cx="4" cy="4" r="4" transform="translate(613 205)" fill="#7cabfa"/>
    </g>
    <g transform="translate(-558 52)">
      <circle id="Ellipse_218-244" data-name="Ellipse 218" cx="4" cy="4" r="4" transform="translate(613 205)" fill="#7cabfa"/>
    </g>
    <g transform="translate(-540 52)">
      <circle id="Ellipse_218-245" data-name="Ellipse 218" cx="4" cy="4" r="4" transform="translate(613 205)" fill="#7cabfa"/>
    </g>
    <g transform="translate(-522 52)">
      <circle id="Ellipse_218-246" data-name="Ellipse 218" cx="4" cy="4" r="4" transform="translate(613 205)" fill="#7cabfa"/>
    </g>
    <g transform="translate(-504 52)">
      <circle id="Ellipse_218-247" data-name="Ellipse 218" cx="4" cy="4" r="4" transform="translate(613 205)" fill="#7cabfa"/>
    </g>
    <g transform="translate(-486 52)">
      <circle id="Ellipse_218-248" data-name="Ellipse 218" cx="4" cy="4" r="4" transform="translate(613 205)" fill="#7cabfa"/>
    </g>
    <g transform="translate(-468 52)">
      <circle id="Ellipse_218-249" data-name="Ellipse 218" cx="4" cy="4" r="4" transform="translate(613 205)" fill="#7cabfa"/>
    </g>
    <g transform="translate(-450 52)">
      <circle id="Ellipse_218-250" data-name="Ellipse 218" cx="4" cy="4" r="4" transform="translate(613 205)" fill="#7cabfa"/>
    </g>
    <g transform="translate(-432 52)">
      <circle id="Ellipse_218-251" data-name="Ellipse 218" cx="4" cy="4" r="4" transform="translate(613 205)" fill="#7cabfa"/>
    </g>
    <g transform="translate(-414 52)">
      <circle id="Ellipse_218-252" data-name="Ellipse 218" cx="4" cy="4" r="4" transform="translate(613 205)" fill="#7cabfa"/>
    </g>
    <g transform="translate(-396 52)">
      <circle id="Ellipse_218-253" data-name="Ellipse 218" cx="4" cy="4" r="4" transform="translate(613 205)" fill="#7cabfa"/>
    </g>
    <g transform="translate(-378 52)">
      <circle id="Ellipse_218-254" data-name="Ellipse 218" cx="4" cy="4" r="4" transform="translate(613 205)" fill="#7cabfa"/>
    </g>
    <g transform="translate(-360 52)">
      <circle id="Ellipse_218-255" data-name="Ellipse 218" cx="4" cy="4" r="4" transform="translate(613 205)" fill="#7cabfa"/>
    </g>
  </g>
</svg>
